<?xml version="1.0" encoding="utf-8"?>
<!-- Generator: Adobe Illustrator 16.0.0, SVG Export Plug-In . SVG Version: 6.00 Build 0)  -->
<!DOCTYPE svg PUBLIC "-//W3C//DTD SVG 1.1//EN" "http://www.w3.org/Graphics/SVG/1.1/DTD/svg11.dtd">
<svg version="1.1" id="Layer_1" xmlns="http://www.w3.org/2000/svg" xmlns:xlink="http://www.w3.org/1999/xlink" x="0px" y="0px"
	 width="611.998px" height="497.055px" viewBox="0 147.473 611.998 497.055" enable-background="new 0 147.473 611.998 497.055"
	 xml:space="preserve">
<path fill="#222222" d="M549.091,271.348c0.389,5.436,0.389,10.874,0.389,16.31c0,165.813-126.205,356.87-356.871,356.87
	c-71.063,0-137.078-20.582-192.609-56.307c10.097,1.164,19.804,1.553,30.289,1.553c58.636,0,112.614-19.804,155.718-53.588
	c-55.142-1.166-101.353-37.279-117.274-86.985c7.767,1.164,15.533,1.941,23.688,1.941c11.261,0,22.523-1.555,33.007-4.271
	c-57.472-11.65-100.577-62.132-100.577-123.099v-1.553c16.697,9.32,36.115,15.145,56.695,15.92
	c-33.784-22.523-55.917-60.967-55.917-104.459c0-23.299,6.212-44.657,17.085-63.296c61.744,76.111,154.554,125.816,258.624,131.253
	c-1.941-9.32-3.107-19.027-3.107-28.735c0-69.123,55.919-125.429,125.429-125.429c36.114,0,68.733,15.145,91.645,39.609
	c28.348-5.436,55.53-15.921,79.607-30.289c-9.321,29.125-29.125,53.589-55.143,69.121c25.241-2.717,49.706-9.708,72.229-19.415
	C594.914,231.351,573.555,253.484,549.091,271.348L549.091,271.348z"/>
</svg>
